<?xml version="1.0" encoding="UTF-8" standalone="no"?>
<!DOCTYPE svg PUBLIC "-//W3C//DTD SVG 1.1//EN" "http://www.w3.org/Graphics/SVG/1.1/DTD/svg11.dtd">
<svg width="100%" height="100%" viewBox="0 0 2270 433" version="1.1" xmlns="http://www.w3.org/2000/svg" xmlns:xlink="http://www.w3.org/1999/xlink" xml:space="preserve" xmlns:serif="http://www.serif.com/" style="fill-rule:evenodd;clip-rule:evenodd;stroke-linejoin:round;stroke-miterlimit:2;">
    <g transform="matrix(1,0,0,1,-344.215,-1057.38)">
        <g transform="matrix(3.3893,0,0,3.3903,-4701.34,-4280.86)">
            <path d="M1793.63,1595.54C1804.03,1595.54 1812.31,1598.69 1818.46,1604.99C1824.61,1611.29 1827.68,1620.04 1827.68,1631.24L1827.68,1680.14L1802.18,1680.14L1802.18,1634.69C1802.18,1629.29 1800.76,1625.11 1797.91,1622.16C1795.06,1619.21 1791.13,1617.74 1786.13,1617.74C1781.13,1617.74 1777.21,1619.21 1774.36,1622.16C1771.51,1625.11 1770.08,1629.29 1770.08,1634.69L1770.08,1680.14L1744.58,1680.14L1744.58,1634.69C1744.58,1629.29 1743.16,1625.11 1740.31,1622.16C1737.46,1619.21 1733.53,1617.74 1728.53,1617.74C1723.53,1617.74 1719.61,1619.21 1716.76,1622.16C1713.91,1625.11 1712.48,1629.29 1712.48,1634.69L1712.48,1680.14L1686.83,1680.14L1686.83,1596.44L1712.48,1596.44L1712.48,1606.94C1715.08,1603.44 1718.48,1600.66 1722.68,1598.61C1726.88,1596.56 1731.63,1595.54 1736.93,1595.54C1743.23,1595.54 1748.86,1596.89 1753.81,1599.59C1758.76,1602.29 1762.63,1606.14 1765.43,1611.14C1768.33,1606.54 1772.28,1602.79 1777.28,1599.89C1782.28,1596.99 1787.73,1595.54 1793.63,1595.54Z" style="fill:rgb(71,18,177);fill-rule:nonzero;"/>
            <path d="M1920.23,1636.94C1920.23,1639.34 1920.08,1641.84 1919.78,1644.44L1861.73,1644.44C1862.13,1649.64 1863.81,1653.61 1866.76,1656.36C1869.71,1659.11 1873.33,1660.49 1877.63,1660.49C1884.03,1660.49 1888.48,1657.79 1890.98,1652.39L1918.28,1652.39C1916.88,1657.89 1914.36,1662.84 1910.71,1667.24C1907.06,1671.64 1902.48,1675.09 1896.98,1677.59C1891.48,1680.09 1885.33,1681.34 1878.53,1681.34C1870.33,1681.34 1863.03,1679.59 1856.63,1676.09C1850.23,1672.59 1845.23,1667.59 1841.63,1661.09C1838.03,1654.59 1836.23,1646.99 1836.23,1638.29C1836.23,1629.59 1838.01,1621.99 1841.56,1615.49C1845.11,1608.99 1850.08,1603.99 1856.48,1600.49C1862.88,1596.99 1870.23,1595.24 1878.53,1595.24C1886.63,1595.24 1893.83,1596.94 1900.13,1600.34C1906.43,1603.74 1911.36,1608.59 1914.91,1614.89C1918.46,1621.19 1920.23,1628.54 1920.23,1636.94ZM1893.98,1630.19C1893.98,1625.79 1892.48,1622.29 1889.48,1619.69C1886.48,1617.09 1882.73,1615.79 1878.23,1615.79C1873.93,1615.79 1870.31,1617.04 1867.36,1619.54C1864.41,1622.04 1862.58,1625.59 1861.88,1630.19L1893.98,1630.19Z" style="fill:rgb(71,18,177);fill-rule:nonzero;"/>
            <path d="M2008.28,1636.94C2008.28,1639.34 2008.13,1641.84 2007.83,1644.44L1949.78,1644.44C1950.18,1649.64 1951.86,1653.61 1954.81,1656.36C1957.76,1659.11 1961.38,1660.49 1965.68,1660.49C1972.08,1660.49 1976.53,1657.79 1979.03,1652.39L2006.33,1652.39C2004.93,1657.89 2002.41,1662.84 1998.76,1667.24C1995.11,1671.64 1990.53,1675.09 1985.03,1677.59C1979.53,1680.09 1973.38,1681.34 1966.58,1681.34C1958.38,1681.34 1951.08,1679.59 1944.68,1676.09C1938.28,1672.59 1933.28,1667.59 1929.68,1661.09C1926.08,1654.59 1924.28,1646.99 1924.28,1638.29C1924.28,1629.59 1926.06,1621.99 1929.61,1615.49C1933.16,1608.99 1938.13,1603.99 1944.53,1600.49C1950.93,1596.99 1958.28,1595.24 1966.58,1595.24C1974.68,1595.24 1981.88,1596.94 1988.18,1600.34C1994.48,1603.74 1999.41,1608.59 2002.96,1614.89C2006.51,1621.19 2008.28,1628.54 2008.28,1636.94ZM1982.03,1630.19C1982.03,1625.79 1980.53,1622.29 1977.53,1619.69C1974.53,1617.09 1970.78,1615.79 1966.28,1615.79C1961.98,1615.79 1958.36,1617.04 1955.41,1619.54C1952.46,1622.04 1950.63,1625.59 1949.93,1630.19L1982.03,1630.19Z" style="fill:rgb(71,18,177);fill-rule:nonzero;"/>
            <path d="M2124.23,1595.54C2134.63,1595.54 2142.91,1598.69 2149.06,1604.99C2155.21,1611.29 2158.28,1620.04 2158.28,1631.24L2158.28,1680.14L2132.78,1680.14L2132.78,1634.69C2132.78,1629.29 2131.36,1625.11 2128.51,1622.16C2125.66,1619.21 2121.73,1617.74 2116.73,1617.74C2111.73,1617.74 2107.81,1619.21 2104.96,1622.16C2102.11,1625.11 2100.68,1629.29 2100.68,1634.69L2100.68,1680.14L2075.18,1680.14L2075.18,1634.69C2075.18,1629.29 2073.76,1625.11 2070.91,1622.16C2068.06,1619.21 2064.13,1617.74 2059.13,1617.74C2054.13,1617.74 2050.21,1619.21 2047.36,1622.16C2044.51,1625.11 2043.08,1629.29 2043.08,1634.69L2043.08,1680.14L2017.43,1680.14L2017.43,1596.44L2043.08,1596.44L2043.08,1606.94C2045.68,1603.44 2049.08,1600.66 2053.28,1598.61C2057.48,1596.56 2062.23,1595.54 2067.53,1595.54C2073.83,1595.54 2079.46,1596.89 2084.41,1599.59C2089.36,1602.29 2093.23,1606.14 2096.03,1611.14C2098.93,1606.54 2102.88,1602.79 2107.88,1599.89C2112.88,1596.99 2118.33,1595.54 2124.23,1595.54Z" style="fill:rgb(71,18,177);fill-rule:nonzero;"/>
        </g>
        <g id="meem-gradient-purple.svg" serif:id="meem gradient purple.svg" transform="matrix(0.193914,0,0,0.193914,632.178,1273.5)">
            <g transform="matrix(1,0,0,1,-1485,-1114.5)">
                <clipPath id="_clip1">
                    <rect x="0" y="0" width="2970" height="2229"/>
                </clipPath>
                <g clip-path="url(#_clip1)">
                    <g transform="matrix(2.51746,0,0,2.51746,-1028.18,-4380.41)">
                        <g>
                            <g transform="matrix(0.833416,0.552645,-0.834444,1.25838,1977.19,-1066.89)">
                                <path d="M932.014,2182.95C931.736,2182.7 931.46,2182.46 931.184,2182.21L932.014,2182.21L932.014,2182.95Z" style="fill:rgb(200,184,255);"/>
                            </g>
                            <path d="M1145.7,1740.01C1389.76,1740.01 1587.9,1938.15 1587.9,2182.21C1587.9,2426.27 1389.76,2624.41 1145.7,2624.41C992.529,2624.41 857.44,2546.37 778.07,2427.9C686.173,2056.61 781.733,2017.82 870.56,1967.09C893.771,2033.07 926.606,2061.84 932.401,2195.17C939.106,2307.08 1032.11,2395.9 1145.7,2395.9C1326.7,2395.9 1473.65,2248.95 1473.65,2067.95C1473.65,1886.95 1326.7,1740.01 1145.7,1740.01Z" style="fill:url(#_Linear2);"/>
                            <g transform="matrix(3.86089,0,0,3.86089,-2644.79,-6300.13)">
                                <path d="M926.498,2194.01C926.498,2194.08 926.499,2194.14 926.499,2194.21C926.499,2194.78 926.475,2195.35 926.429,2195.91C926.441,2195.28 926.464,2194.64 926.498,2194.01ZM923.589,2204.73C923.275,2205.25 922.939,2205.76 922.581,2206.25L923.589,2204.73Z" style="fill:rgb(120,92,212);"/>
                            </g>
                            <path d="M917.196,2217.98C864.23,2297.89 725.153,2522.81 725.153,2522.81C691.66,2573.32 639.473,2608.46 580.074,2620.49C520.675,2632.52 458.928,2620.47 408.418,2586.97L669.976,2177.42C691.75,2144.59 707.925,2108.37 717.844,2070.24C767.463,1880.32 940.326,1740.01 1145.7,1740.01C1326.7,1740.01 1473.65,1886.95 1473.65,2067.95C1473.65,2248.95 1326.7,2395.9 1145.7,2395.9C1263.64,2395.9 1359.39,2300.15 1359.39,2182.21C1359.39,2064.27 1263.64,1968.52 1145.7,1968.52C1031.62,1968.52 938.302,2058.11 932.318,2170.71C932.189,2173.15 932.1,2175.6 932.053,2178.06C931.034,2190.43 927.16,2202 921.09,2212.11L917.196,2217.98Z" style="fill:url(#_Linear3);"/>
                        </g>
                    </g>
                </g>
            </g>
        </g>
    </g>
    <defs>
        <linearGradient id="_Linear2" x1="0" y1="0" x2="1" y2="0" gradientUnits="userSpaceOnUse" gradientTransform="matrix(881.899,289.766,-289.766,881.899,706.006,2032.13)"><stop offset="0" style="stop-color:rgb(71,18,177);stop-opacity:1"/><stop offset="1" style="stop-color:rgb(199,46,230);stop-opacity:1"/></linearGradient>
        <linearGradient id="_Linear3" x1="0" y1="0" x2="1" y2="0" gradientUnits="userSpaceOnUse" gradientTransform="matrix(1100.08,0,0,1100.08,373.572,2201.24)"><stop offset="0" style="stop-color:rgb(199,46,230);stop-opacity:1"/><stop offset="1" style="stop-color:rgb(71,18,177);stop-opacity:1"/></linearGradient>
    </defs>
</svg>
